<svg width="98" height="98" viewBox="0 0 98 98" fill="none" xmlns="http://www.w3.org/2000/svg">
<path d="M92.75 0.5625H24C21.4156 0.5625 19.3125 2.66562 19.3125 5.25V28.6875H8.375C4.06719 28.6875 0.5625 32.1922 0.5625 36.5V74C0.5625 78.3078 4.06719 81.8125 8.375 81.8125H23.3938L21.3109 88.0625H16.1875C13.6031 88.0625 11.5 90.1656 11.5 92.75V97.4375H58.375V92.75C58.375 90.1656 56.2719 88.0625 53.6875 88.0625H48.5641L46.4813 81.8125H61.5C65.8078 81.8125 69.3125 78.3078 69.3125 74V72.4375H92.75C95.3344 72.4375 97.4375 70.3344 97.4375 67.75V5.25C97.4375 2.66562 95.3344 0.5625 92.75 0.5625ZM24 3.6875H92.75C93.6109 3.6875 94.3125 4.38906 94.3125 5.25V13.0625H22.4375V5.25C22.4375 4.38906 23.1391 3.6875 24 3.6875ZM8.375 31.8125H61.5C64.0844 31.8125 66.1875 33.9156 66.1875 36.5V66.1875H3.6875V36.5C3.6875 33.9156 5.79062 31.8125 8.375 31.8125ZM69.3125 41.1875H88.0625V63.0625H69.3125V41.1875ZM55.25 92.75V94.3125H14.625V92.75C14.625 91.8891 15.3266 91.1875 16.1875 91.1875H53.6875C54.5484 91.1875 55.25 91.8891 55.25 92.75ZM45.2687 88.0625H24.6063L26.6891 81.8125H43.1859L45.2687 88.0625ZM61.5 78.6875H8.375C5.79062 78.6875 3.6875 76.5844 3.6875 74V69.3125H66.1875V74C66.1875 76.5844 64.0844 78.6875 61.5 78.6875ZM92.75 69.3125H69.3125V66.1875H91.1875V38.0625H69.3125V36.5C69.3125 32.1922 65.8078 28.6875 61.5 28.6875H22.4375V16.1875H94.3125V67.75C94.3125 68.6109 93.6109 69.3125 92.75 69.3125Z" fill="#C04941"/>
<path d="M27.125 72.4375H30.25V75.5625H27.125V72.4375Z" fill="#C04941"/>
<path d="M33.375 72.4375H36.5V75.5625H33.375V72.4375Z" fill="#C04941"/>
<path d="M39.625 72.4375H42.75V75.5625H39.625V72.4375Z" fill="#C04941"/>
<path d="M31.8125 6.8125H34.9375V9.9375H31.8125V6.8125Z" fill="#C04941"/>
<path d="M38.0625 6.8125H41.1875V9.9375H38.0625V6.8125Z" fill="#C04941"/>
<path d="M25.5625 6.8125H28.6875V9.9375H25.5625V6.8125Z" fill="#C04941"/>
<path d="M25.5625 19.3125H28.6875V22.4375H25.5625V19.3125Z" fill="#C04941"/>
<path d="M31.8125 19.3125H91.1875V22.4375H31.8125V19.3125Z" fill="#C04941"/>
<path d="M72.4375 25.5625H91.1875V28.6875H72.4375V25.5625Z" fill="#C04941"/>
<path d="M72.4375 31.8125H91.1875V34.9375H72.4375V31.8125Z" fill="#C04941"/>
<path d="M11.5 63.0625H42.75C45.3344 63.0625 47.4375 60.9594 47.4375 58.375V39.625C47.4375 37.0406 45.3344 34.9375 42.75 34.9375H11.5C8.91562 34.9375 6.8125 37.0406 6.8125 39.625V58.375C6.8125 60.9594 8.91562 63.0625 11.5 63.0625ZM9.9375 39.625C9.9375 38.7641 10.6391 38.0625 11.5 38.0625H42.75C43.6109 38.0625 44.3125 38.7641 44.3125 39.625V58.375C44.3125 59.2359 43.6109 59.9375 42.75 59.9375H11.5C10.6391 59.9375 9.9375 59.2359 9.9375 58.375V39.625Z" fill="#C04941"/>
<path d="M22.527 57.8554L28.7725 39.0993L31.7381 40.0868L25.4926 58.8429L22.527 57.8554Z" fill="#C04941"/>
<path d="M34.4797 56.3547L41.8344 49L34.4797 41.6453L32.2703 43.8547L37.4156 49L32.2703 54.1453L34.4797 56.3547Z" fill="#C04941"/>
<path d="M21.9797 54.1453L16.8344 49L21.9797 43.8547L19.7703 41.6453L12.4156 49L19.7703 56.3547L21.9797 54.1453Z" fill="#C04941"/>
<path d="M50.5625 34.9375H63.0625V38.0625H50.5625V34.9375Z" fill="#C04941"/>
<path d="M50.5625 41.1875H63.0625V44.3125H50.5625V41.1875Z" fill="#C04941"/>
<path d="M50.5625 47.4375H63.0625V50.5625H50.5625V47.4375Z" fill="#C04941"/>
<path d="M50.5625 53.6875H63.0625V56.8125H50.5625V53.6875Z" fill="#C04941"/>
<path d="M53.6875 59.9375H56.8125V63.0625H53.6875V59.9375Z" fill="#C04941"/>
<path d="M59.9375 59.9375H63.0625V63.0625H59.9375V59.9375Z" fill="#C04941"/>
</svg>
