<svg width="872" height="571" viewBox="0 0 872 571" fill="none" xmlns="http://www.w3.org/2000/svg">
<path d="M0 10C0 4.47716 4.47715 0 10 0H858C863.523 0 868 4.47715 868 10V561C868 566.523 863.523 571 858 571H10C4.47716 571 0 566.523 0 561V10Z" fill="#4A3F55"/>
<circle cx="33.5" cy="30.5" r="7.5" fill="#8F7CA3"/>
<circle cx="63.5" cy="30.5" r="7.5" fill="#8F7CA3"/>
<circle cx="93.5" cy="30.5" r="7.5" fill="#8F7CA3"/>
<g filter="url(#filter0_d)">
<path d="M31 69C31 63.4772 35.4772 59 41 59H827C832.523 59 837 63.4772 837 69V526C837 531.523 832.523 536 827 536H41C35.4772 536 31 531.523 31 526V69Z" fill="white"/>
</g>
<defs>
<filter id="filter0_d" x="6" y="34" width="866" height="537" filterUnits="userSpaceOnUse" color-interpolation-filters="sRGB">
<feFlood flood-opacity="0" result="BackgroundImageFix"/>
<feColorMatrix in="SourceAlpha" type="matrix" values="0 0 0 0 0 0 0 0 0 0 0 0 0 0 0 0 0 0 127 0"/>
<feOffset dx="5" dy="5"/>
<feGaussianBlur stdDeviation="15"/>
<feColorMatrix type="matrix" values="0 0 0 0 0 0 0 0 0 0 0 0 0 0 0 0 0 0 0.25 0"/>
<feBlend mode="normal" in2="BackgroundImageFix" result="effect1_dropShadow"/>
<feBlend mode="normal" in="SourceGraphic" in2="effect1_dropShadow" result="shape"/>
</filter>
</defs>
</svg>
