<svg width="98" height="81" viewBox="0 0 98 81" fill="none" xmlns="http://www.w3.org/2000/svg">
<path d="M91.1875 0.9375H6.8125C5.15556 0.93967 3.56711 1.59885 2.39548 2.77048C1.22385 3.94211 0.56467 5.53056 0.5625 7.1875V60.3125C0.56467 61.9694 1.22385 63.5579 2.39548 64.7295C3.56711 65.9012 5.15556 66.5603 6.8125 66.5625H39.0195L36.9355 72.8125H31.8125C31.3981 72.8125 31.0007 72.9771 30.7076 73.2701C30.4146 73.5632 30.25 73.9606 30.25 74.375V77.5H16.1875C15.7731 77.5 15.3757 77.6646 15.0826 77.9576C14.7896 78.2507 14.625 78.6481 14.625 79.0625C14.625 79.4769 14.7896 79.8743 15.0826 80.1674C15.3757 80.4604 15.7731 80.625 16.1875 80.625H84.9375C85.3519 80.625 85.7493 80.4604 86.0424 80.1674C86.3354 79.8743 86.5 79.4769 86.5 79.0625C86.5 78.6481 86.3354 78.2507 86.0424 77.9576C85.7493 77.6646 85.3519 77.5 84.9375 77.5H67.75V74.375C67.75 73.9606 67.5854 73.5632 67.2924 73.2701C66.9993 72.9771 66.6019 72.8125 66.1875 72.8125H61.0644L58.9805 66.5625H91.1875C92.8444 66.5603 94.4329 65.9012 95.6045 64.7295C96.7762 63.5579 97.4353 61.9694 97.4375 60.3125V7.1875C97.4353 5.53056 96.7762 3.94211 95.6045 2.77048C94.4329 1.59885 92.8444 0.93967 91.1875 0.9375ZM64.625 75.9375V77.5H33.375V75.9375H64.625ZM40.2305 72.8125L42.3145 66.5625H55.6856L57.7695 72.8125H40.2305ZM94.3125 60.3125C94.3114 61.141 93.9818 61.9352 93.396 62.521C92.8102 63.1068 92.016 63.4364 91.1875 63.4375H6.8125C5.98403 63.4364 5.18981 63.1068 4.60399 62.521C4.01817 61.9352 3.68859 61.141 3.6875 60.3125V57.1875H94.3125V60.3125ZM27.0586 40L26.4727 54.0625H24.6523L24.0664 40H27.0586ZM24.2812 36.875L25.3242 30.625H25.8008L26.8438 36.875H24.2812ZM25.5625 27.5C23.8691 27.5 22.4375 25.3535 22.4375 22.8125C22.4375 21.209 24.0742 18.8789 25.5586 17.2363C26.8965 18.7207 28.6875 21.0938 28.6875 22.8125C28.6875 25.3535 27.2559 27.5 25.5625 27.5ZM42.5664 24.375L42.75 24.7441V25.9375H36.5V24.7441L36.6836 24.375H42.5664ZM38.2461 21.25L39.625 18.4941L41.0039 21.25H38.2461ZM42.75 29.0625V53.8672C42.7506 53.9325 42.7552 53.9977 42.7637 54.0625H36.4863C36.4948 53.9977 36.4994 53.9325 36.5 53.8672V29.0625H42.75ZM56.8125 22.8125H61.5V25.9375H59.9375C59.5231 25.9375 59.1257 26.1021 58.8326 26.3951C58.5396 26.6882 58.375 27.0856 58.375 27.5C58.375 27.9144 58.5396 28.3118 58.8326 28.6049C59.1257 28.8979 59.5231 29.0625 59.9375 29.0625H61.5V32.1875H56.8125C56.3981 32.1875 56.0007 32.3521 55.7076 32.6451C55.4146 32.9382 55.25 33.3356 55.25 33.75C55.25 34.1644 55.4146 34.5618 55.7076 34.8549C56.0007 35.1479 56.3981 35.3125 56.8125 35.3125H61.5V38.4375H59.9375C59.5231 38.4375 59.1257 38.6021 58.8326 38.8951C58.5396 39.1882 58.375 39.5856 58.375 40C58.375 40.4144 58.5396 40.8118 58.8326 41.1049C59.1257 41.3979 59.5231 41.5625 59.9375 41.5625H61.5V44.6875H56.8125C56.3981 44.6875 56.0007 44.8521 55.7076 45.1451C55.4146 45.4382 55.25 45.8356 55.25 46.25C55.25 46.6644 55.4146 47.0618 55.7076 47.3549C56.0007 47.6479 56.3981 47.8125 56.8125 47.8125H61.5V54.0625H50.5625V16.5625H61.5V19.6875H56.8125C56.3981 19.6875 56.0007 19.8521 55.7076 20.1451C55.4146 20.4382 55.25 20.8356 55.25 21.25C55.25 21.6644 55.4146 22.0618 55.7076 22.3549C56.0007 22.6479 56.3981 22.8125 56.8125 22.8125ZM75.5625 41.5625V53.8672C75.5631 53.9325 75.5677 53.9977 75.5762 54.0625H69.2988C69.3073 53.9977 69.3119 53.9325 69.3125 53.8672V41.5625H75.5625ZM69.3125 38.4375V37.2441L72.4375 30.9941L75.5625 37.2441V38.4375H69.3125ZM94.3125 54.0625H78.6738C78.6823 53.9977 78.6869 53.9325 78.6875 53.8672V36.875C78.6873 36.6324 78.6311 36.3931 78.5234 36.1758L73.8359 26.8008C73.7059 26.5413 73.5062 26.3231 73.2592 26.1707C73.0123 26.0182 72.7277 25.9374 72.4375 25.9374C72.1473 25.9374 71.8627 26.0182 71.6158 26.1707C71.3688 26.3231 71.1691 26.5413 71.0391 26.8008L66.3516 36.1758C66.2439 36.3931 66.1877 36.6324 66.1875 36.875V53.8672C66.1881 53.9325 66.1927 53.9977 66.2012 54.0625H64.625V15C64.625 14.5856 64.4604 14.1882 64.1674 13.8951C63.8743 13.6021 63.4769 13.4375 63.0625 13.4375H49C48.5856 13.4375 48.1882 13.6021 47.8951 13.8951C47.6021 14.1882 47.4375 14.5856 47.4375 15V54.0625H45.8613C45.8698 53.9977 45.8744 53.9325 45.875 53.8672V24.375C45.8748 24.1324 45.8186 23.8931 45.7109 23.6758L41.0234 14.3008C40.8934 14.0413 40.6937 13.8231 40.4467 13.6707C40.1998 13.5182 39.9152 13.4374 39.625 13.4374C39.3348 13.4374 39.0502 13.5182 38.8033 13.6707C38.5563 13.8231 38.3566 14.0413 38.2266 14.3008L33.5391 23.6758C33.4314 23.8931 33.3752 24.1324 33.375 24.375V53.8672C33.3756 53.9325 33.3802 53.9977 33.3887 54.0625H29.5996L30.248 38.502C30.25 38.4668 30.248 38.4316 30.248 38.3945V38.3477C30.2444 38.2927 30.2379 38.2379 30.2285 38.1836V38.1797L28.7832 29.5059C30.5977 28.1367 31.8125 25.6484 31.8125 22.8125C31.8125 18.7969 27.1582 14.3496 26.627 13.8555C26.3374 13.5871 25.9573 13.438 25.5625 13.438C25.1677 13.438 24.7876 13.5871 24.498 13.8555C23.9668 14.3496 19.3125 18.7969 19.3125 22.8125C19.3125 25.6484 20.5273 28.1367 22.3418 29.5059L20.8965 38.1797V38.1836C20.8871 38.2379 20.8806 38.2927 20.877 38.3477V38.3945C20.877 38.4316 20.875 38.4668 20.877 38.502L21.5254 54.0625H3.6875V7.1875C3.68859 6.35903 4.01817 5.56481 4.60399 4.97899C5.18981 4.39317 5.98403 4.06359 6.8125 4.0625H91.1875C92.016 4.06359 92.8102 4.39317 93.396 4.97899C93.9818 5.56481 94.3114 6.35903 94.3125 7.1875V54.0625Z" fill="url(#paint0_linear)"/>
<path d="M17.75 58.75H8.375C7.9606 58.75 7.56317 58.9146 7.27015 59.2076C6.97712 59.5007 6.8125 59.8981 6.8125 60.3125C6.8125 60.7269 6.97712 61.1243 7.27015 61.4174C7.56317 61.7104 7.9606 61.875 8.375 61.875H17.75C18.1644 61.875 18.5618 61.7104 18.8549 61.4174C19.1479 61.1243 19.3125 60.7269 19.3125 60.3125C19.3125 59.8981 19.1479 59.5007 18.8549 59.2076C18.5618 58.9146 18.1644 58.75 17.75 58.75Z" fill="url(#paint1_linear)"/>
<path d="M24 58.75H22.4375C22.0231 58.75 21.6257 58.9146 21.3326 59.2076C21.0396 59.5007 20.875 59.8981 20.875 60.3125C20.875 60.7269 21.0396 61.1243 21.3326 61.4174C21.6257 61.7104 22.0231 61.875 22.4375 61.875H24C24.4144 61.875 24.8118 61.7104 25.1049 61.4174C25.3979 61.1243 25.5625 60.7269 25.5625 60.3125C25.5625 59.8981 25.3979 59.5007 25.1049 59.2076C24.8118 58.9146 24.4144 58.75 24 58.75Z" fill="url(#paint2_linear)"/>
<path d="M39.625 30.625C39.2106 30.625 38.8132 30.7896 38.5201 31.0826C38.2271 31.3757 38.0625 31.7731 38.0625 32.1875V49.375C38.0625 49.7894 38.2271 50.1868 38.5201 50.4799C38.8132 50.7729 39.2106 50.9375 39.625 50.9375C40.0394 50.9375 40.4368 50.7729 40.7299 50.4799C41.0229 50.1868 41.1875 49.7894 41.1875 49.375V32.1875C41.1875 31.7731 41.0229 31.3757 40.7299 31.0826C40.4368 30.7896 40.0394 30.625 39.625 30.625Z" fill="url(#paint3_linear)"/>
<path d="M72.4375 43.125C72.0231 43.125 71.6257 43.2896 71.3326 43.5826C71.0396 43.8757 70.875 44.2731 70.875 44.6875V49.375C70.875 49.7894 71.0396 50.1868 71.3326 50.4799C71.6257 50.7729 72.0231 50.9375 72.4375 50.9375C72.8519 50.9375 73.2493 50.7729 73.5424 50.4799C73.8354 50.1868 74 49.7894 74 49.375V44.6875C74 44.2731 73.8354 43.8757 73.5424 43.5826C73.2493 43.2896 72.8519 43.125 72.4375 43.125Z" fill="url(#paint4_linear)"/>
<path d="M8.375 10.3125H20.875C21.2894 10.3125 21.6868 10.1479 21.9799 9.85485C22.2729 9.56183 22.4375 9.1644 22.4375 8.75C22.4375 8.3356 22.2729 7.93817 21.9799 7.64515C21.6868 7.35212 21.2894 7.1875 20.875 7.1875H8.375C7.9606 7.1875 7.56317 7.35212 7.27015 7.64515C6.97712 7.93817 6.8125 8.3356 6.8125 8.75C6.8125 9.1644 6.97712 9.56183 7.27015 9.85485C7.56317 10.1479 7.9606 10.3125 8.375 10.3125Z" fill="url(#paint5_linear)"/>
<path d="M8.375 15H11.5C11.9144 15 12.3118 14.8354 12.6049 14.5424C12.8979 14.2493 13.0625 13.8519 13.0625 13.4375C13.0625 13.0231 12.8979 12.6257 12.6049 12.3326C12.3118 12.0396 11.9144 11.875 11.5 11.875H8.375C7.9606 11.875 7.56317 12.0396 7.27015 12.3326C6.97712 12.6257 6.8125 13.0231 6.8125 13.4375C6.8125 13.8519 6.97712 14.2493 7.27015 14.5424C7.56317 14.8354 7.9606 15 8.375 15Z" fill="url(#paint6_linear)"/>
<path d="M83.375 50.9375H89.625C90.0394 50.9375 90.4368 50.7729 90.7299 50.4799C91.0229 50.1868 91.1875 49.7894 91.1875 49.375C91.1875 48.9606 91.0229 48.5632 90.7299 48.2701C90.4368 47.9771 90.0394 47.8125 89.625 47.8125H83.375C82.9606 47.8125 82.5632 47.9771 82.2701 48.2701C81.9771 48.5632 81.8125 48.9606 81.8125 49.375C81.8125 49.7894 81.9771 50.1868 82.2701 50.4799C82.5632 50.7729 82.9606 50.9375 83.375 50.9375Z" fill="url(#paint7_linear)"/>
<path d="M88.0625 46.25H89.625C90.0394 46.25 90.4368 46.0854 90.7299 45.7924C91.0229 45.4993 91.1875 45.1019 91.1875 44.6875C91.1875 44.2731 91.0229 43.8757 90.7299 43.5826C90.4368 43.2896 90.0394 43.125 89.625 43.125H88.0625C87.6481 43.125 87.2507 43.2896 86.9576 43.5826C86.6646 43.8757 86.5 44.2731 86.5 44.6875C86.5 45.1019 86.6646 45.4993 86.9576 45.7924C87.2507 46.0854 87.6481 46.25 88.0625 46.25Z" fill="url(#paint8_linear)"/>
<defs>
<linearGradient id="paint0_linear" x1="-2.34375" y1="-23.1349" x2="122.357" y2="-18.6498" gradientUnits="userSpaceOnUse">
<stop stop-color="#FF6B00"/>
<stop offset="0.53125" stop-color="#FF0099"/>
<stop offset="1" stop-color="#3300FF"/>
</linearGradient>
<linearGradient id="paint1_linear" x1="-2.34375" y1="-23.1349" x2="122.357" y2="-18.6498" gradientUnits="userSpaceOnUse">
<stop stop-color="#FF6B00"/>
<stop offset="0.53125" stop-color="#FF0099"/>
<stop offset="1" stop-color="#3300FF"/>
</linearGradient>
<linearGradient id="paint2_linear" x1="-2.34375" y1="-23.1349" x2="122.357" y2="-18.6498" gradientUnits="userSpaceOnUse">
<stop stop-color="#FF6B00"/>
<stop offset="0.53125" stop-color="#FF0099"/>
<stop offset="1" stop-color="#3300FF"/>
</linearGradient>
<linearGradient id="paint3_linear" x1="-2.34375" y1="-23.1349" x2="122.357" y2="-18.6498" gradientUnits="userSpaceOnUse">
<stop stop-color="#FF6B00"/>
<stop offset="0.53125" stop-color="#FF0099"/>
<stop offset="1" stop-color="#3300FF"/>
</linearGradient>
<linearGradient id="paint4_linear" x1="-2.34375" y1="-23.1349" x2="122.357" y2="-18.6498" gradientUnits="userSpaceOnUse">
<stop stop-color="#FF6B00"/>
<stop offset="0.53125" stop-color="#FF0099"/>
<stop offset="1" stop-color="#3300FF"/>
</linearGradient>
<linearGradient id="paint5_linear" x1="-2.34375" y1="-23.1349" x2="122.357" y2="-18.6498" gradientUnits="userSpaceOnUse">
<stop stop-color="#FF6B00"/>
<stop offset="0.53125" stop-color="#FF0099"/>
<stop offset="1" stop-color="#3300FF"/>
</linearGradient>
<linearGradient id="paint6_linear" x1="-2.34375" y1="-23.1349" x2="122.357" y2="-18.6498" gradientUnits="userSpaceOnUse">
<stop stop-color="#FF6B00"/>
<stop offset="0.53125" stop-color="#FF0099"/>
<stop offset="1" stop-color="#3300FF"/>
</linearGradient>
<linearGradient id="paint7_linear" x1="-2.34375" y1="-23.1349" x2="122.357" y2="-18.6498" gradientUnits="userSpaceOnUse">
<stop stop-color="#FF6B00"/>
<stop offset="0.53125" stop-color="#FF0099"/>
<stop offset="1" stop-color="#3300FF"/>
</linearGradient>
<linearGradient id="paint8_linear" x1="-2.34375" y1="-23.1349" x2="122.357" y2="-18.6498" gradientUnits="userSpaceOnUse">
<stop stop-color="#FF6B00"/>
<stop offset="0.53125" stop-color="#FF0099"/>
<stop offset="1" stop-color="#3300FF"/>
</linearGradient>
</defs>
</svg>
