<svg width="100" height="96" viewBox="0 0 100 96" fill="none" xmlns="http://www.w3.org/2000/svg">
<path d="M98.0469 0.00170898H1.95312C0.874411 0.00170898 0 0.876315 0 1.95483V22.0444C0 23.1229 0.874411 23.9975 1.95312 23.9975H98.0469C99.1256 23.9975 100 23.1229 100 22.0444V1.95483C100 0.876315 99.1256 0.00170898 98.0469 0.00170898ZM96.0938 20.0913H3.90623V3.90794H96.0938V20.0913Z" fill="#C04941"/>
<path d="M91.6813 15.655L90.0862 14.0599C90.5215 13.1989 90.7534 12.2423 90.7534 11.2497C90.7534 9.58314 90.1043 8.01596 88.9258 6.83745C86.493 4.40484 82.5346 4.40464 80.1016 6.83745C78.9231 8.01596 78.2741 9.58314 78.2741 11.2497C78.2741 12.9163 78.9233 14.4835 80.1016 15.6618C81.2803 16.8403 82.8473 17.4894 84.5139 17.4894C85.5067 17.4894 86.4631 17.2573 87.3241 16.8222L88.9192 18.4173C89.3006 18.7985 89.8004 18.9894 90.3002 18.9894C90.8 18.9894 91.3 18.7985 91.6813 18.4173C92.444 17.6546 92.444 16.4179 91.6813 15.655ZM86.1639 12.8995C85.7233 13.3404 85.1374 13.5831 84.5139 13.5831C83.8905 13.5831 83.3048 13.3404 82.8639 12.8995C82.4233 12.4587 82.1803 11.873 82.1803 11.2497C82.1803 10.6265 82.4233 10.0404 82.8639 9.59974C83.3188 9.14486 83.9165 8.91752 84.5139 8.91752C85.1114 8.91752 85.709 9.14486 86.1639 9.59974C86.6045 10.0406 86.8475 10.6265 86.8475 11.2497C86.8475 11.873 86.6047 12.4589 86.1639 12.8995Z" fill="#C04941"/>
<path d="M69.9882 15.1545C69.9628 15.0293 69.9257 14.9063 69.8769 14.7893C69.828 14.6719 69.7675 14.5568 69.6972 14.4514C69.6269 14.3459 69.5448 14.2443 69.455 14.1545C69.3652 14.0647 69.2655 13.9826 69.1581 13.9123C69.0527 13.842 68.9394 13.7815 68.8202 13.7326C68.703 13.6838 68.58 13.6467 68.455 13.6213C68.203 13.5705 67.9433 13.5705 67.6913 13.6213C67.5663 13.6467 67.4433 13.6838 67.3261 13.7326C67.2089 13.7815 67.0956 13.842 66.9902 13.9123C66.8827 13.9826 66.7831 14.0647 66.6913 14.1545C66.6015 14.2443 66.5214 14.3457 66.4492 14.4514C66.3788 14.5568 66.3183 14.6721 66.2695 14.7893C66.2206 14.9064 66.1835 15.0293 66.1581 15.1545C66.1327 15.2813 66.121 15.4084 66.121 15.5373C66.121 15.6641 66.1327 15.7912 66.1581 15.9182C66.1835 16.0432 66.2206 16.1662 66.2695 16.2832C66.3183 16.4006 66.3788 16.5139 66.4492 16.6211C66.5214 16.7266 66.6015 16.8281 66.6913 16.918C66.7831 17.0078 66.8827 17.09 66.9902 17.1602C67.0956 17.2305 67.2089 17.291 67.3261 17.3398C67.4452 17.3887 67.5683 17.4258 67.6913 17.4512C67.8183 17.4766 67.9472 17.4883 68.0741 17.4883C68.2011 17.4883 68.33 17.4764 68.455 17.4512C68.58 17.426 68.703 17.3887 68.8202 17.3398C68.9374 17.291 69.0527 17.2305 69.1581 17.1602C69.2655 17.09 69.3652 17.0078 69.455 16.918C69.8183 16.5529 70.0273 16.051 70.0273 15.5373C70.0273 15.4084 70.0136 15.2813 69.9882 15.1545Z" fill="#C04941"/>
<path d="M60.6691 13.5832H20.0769C18.9982 13.5832 18.1238 14.4578 18.1238 15.5363C18.1238 16.6148 18.9982 17.4894 20.0769 17.4894H60.6691C61.7478 17.4894 62.6222 16.6148 62.6222 15.5363C62.6222 14.4578 61.7478 13.5832 60.6691 13.5832Z" fill="#C04941"/>
<path d="M61.4882 26.7819H2.18378C1.10507 26.7819 0.230663 27.6565 0.230663 28.735V67.2503C0.230663 68.329 1.10507 69.2034 2.18378 69.2034H61.4882C62.5669 69.2034 63.4414 68.3288 63.4414 67.2503V28.735C63.4414 27.6565 62.5669 26.7819 61.4882 26.7819ZM23.7901 65.297H7.21189L18.3769 52.3701L26.4628 61.7333L23.7901 65.297ZM28.6729 65.297L32.3147 60.4413H41.7852C42.8639 60.4413 43.7383 59.5667 43.7383 58.4882C43.7383 57.4097 42.8639 56.5351 41.7852 56.5351H35.2446L36.6149 54.7081H48.8783L56.8207 65.297H28.6729ZM39.5444 50.8019L42.7465 46.5326L45.9486 50.8019H39.5444ZM59.5351 62.406L44.309 42.1053C43.9401 41.6135 43.3612 41.324 42.7465 41.324C42.1319 41.324 41.553 41.6135 41.184 42.1053L28.8618 58.5347L19.8552 48.105C19.4843 47.6755 18.9447 47.4285 18.3771 47.4285C17.8095 47.4285 17.27 47.6755 16.899 48.105L4.1369 62.881V30.6881H59.5351V62.406Z" fill="#C04941"/>
<path d="M26.8843 32.9307C23.0769 32.9307 19.9794 36.0282 19.9794 39.8356C19.9794 43.643 23.0771 46.7404 26.8843 46.7404C30.6917 46.7404 33.7891 43.643 33.7891 39.8356C33.7891 36.0282 30.6917 32.9307 26.8843 32.9307ZM26.8843 42.8344C25.2308 42.8344 23.8856 41.4893 23.8856 39.8358C23.8856 38.1823 25.231 36.8372 26.8843 36.8372C28.5376 36.8372 29.8829 38.1823 29.8829 39.8358C29.8829 41.4893 28.5378 42.8344 26.8843 42.8344Z" fill="#C04941"/>
<path d="M98.0469 26.7819H68.0294C66.9507 26.7819 66.0763 27.6565 66.0763 28.735V67.2503C66.0763 68.3288 66.9507 69.2034 68.0294 69.2034H98.0469C99.1256 69.2034 100 68.3288 100 67.2503V28.735C100 27.6565 99.1256 26.7819 98.0469 26.7819ZM96.0938 65.2971H69.9825V30.6881H96.0938V65.2971Z" fill="#C04941"/>
<path d="M91.5463 33.9051H74.53C73.4513 33.9051 72.5769 34.7798 72.5769 35.8583C72.5769 36.9368 73.4513 37.8114 74.53 37.8114H91.5463C92.625 37.8114 93.4994 36.9368 93.4994 35.8583C93.4994 34.7798 92.625 33.9051 91.5463 33.9051Z" fill="#C04941"/>
<path d="M91.5463 41.7437H74.53C73.4513 41.7437 72.5769 42.6184 72.5769 43.6969C72.5769 44.7754 73.4513 45.65 74.53 45.65H91.5463C92.625 45.65 93.4994 44.7754 93.4994 43.6969C93.4994 42.6184 92.625 41.7437 91.5463 41.7437Z" fill="#C04941"/>
<path d="M91.5463 49.5824H74.53C73.4513 49.5824 72.5769 50.457 72.5769 51.5355C72.5769 52.614 73.4513 53.4886 74.53 53.4886H91.5463C92.625 53.4886 93.4994 52.614 93.4994 51.5355C93.4994 50.457 92.625 49.5824 91.5463 49.5824Z" fill="#C04941"/>
<path d="M76.4452 58.9921C76.4198 58.867 76.3827 58.7439 76.3339 58.6269C76.2851 58.5095 76.2245 58.3963 76.1542 58.289C76.0819 58.1836 76.0019 58.082 75.9101 57.9922C75.4569 57.539 74.7831 57.3298 74.1483 57.459C74.0233 57.4843 73.9003 57.5215 73.7831 57.5703C73.6659 57.6191 73.5526 57.6796 73.4452 57.75C73.3397 57.8203 73.2382 57.9023 73.1483 57.9922C73.0585 58.082 72.9765 58.1834 72.9062 58.289C72.8358 58.3964 72.7753 58.5097 72.7265 58.6269C72.6776 58.7441 72.6405 58.867 72.6151 58.9921C72.5898 59.1189 72.5761 59.2461 72.5761 59.3728C72.5761 59.5017 72.5898 59.6289 72.6151 59.7556C72.6405 59.8808 72.6776 60.0039 72.7265 60.121C72.7753 60.2384 72.8358 60.3517 72.9062 60.4589C72.9765 60.5644 73.0585 60.666 73.1483 60.7558C73.2382 60.8457 73.3397 60.9277 73.4452 60.998C73.5526 61.0683 73.6659 61.1289 73.7831 61.1777C73.9003 61.2265 74.0233 61.2636 74.1483 61.289C74.2753 61.3144 74.4023 61.3281 74.5312 61.3281C75.0448 61.3281 75.5468 61.1191 75.9101 60.7556C75.9999 60.6658 76.0819 60.5644 76.1542 60.4587C76.2245 60.3513 76.2851 60.238 76.3339 60.1209C76.3827 60.0037 76.4198 59.8808 76.4452 59.7556C76.4706 59.6289 76.4823 59.5017 76.4823 59.3728C76.4823 59.2461 76.4706 59.1189 76.4452 58.9921Z" fill="#C04941"/>
<path d="M91.5463 57.4208H81.9342C80.8555 57.4208 79.9811 58.2954 79.9811 59.3739C79.9811 60.4524 80.8555 61.327 81.9342 61.327H91.5463C92.625 61.327 93.4994 60.4524 93.4994 59.3739C93.4994 58.2954 92.625 57.4208 91.5463 57.4208Z" fill="#C04941"/>
<path d="M32.2012 71.9745H2.18378C1.10507 71.9745 0.230663 72.8491 0.230663 73.9276V94.0451C0.230663 95.1236 1.10507 95.9982 2.18378 95.9982H32.2012C33.2799 95.9982 34.1544 95.1236 34.1544 94.0451V73.9276C34.1544 72.8491 33.2799 71.9745 32.2012 71.9745ZM30.2481 92.092H4.1369V75.8808H30.2481V92.092Z" fill="#C04941"/>
<path d="M98.0469 71.9745H39.0092C37.9305 71.9745 37.0561 72.8491 37.0561 73.9276V94.0451C37.0561 95.1236 37.9305 95.9982 39.0092 95.9982H98.0469C99.1256 95.9982 100 95.1236 100 94.0451V73.9276C100 72.8491 99.1256 71.9745 98.0469 71.9745ZM96.0938 92.092H40.9623V75.8808H96.0938V92.092Z" fill="#C04941"/>
<path d="M49.8594 83.6056C49.834 83.4808 49.7969 83.3575 49.748 83.2403C49.6992 83.1212 49.6387 83.0081 49.5684 82.9027C49.498 82.795 49.416 82.6954 49.3262 82.6056C49.2363 82.5157 49.1367 82.4337 49.0293 82.3634C48.9238 82.2933 48.8106 82.2325 48.6914 82.1837C48.5742 82.1349 48.4512 82.0958 48.3262 82.0704C48.0742 82.0216 47.8145 82.0216 47.5625 82.0704C47.4395 82.0958 47.3164 82.1349 47.1973 82.1837C47.0801 82.2325 46.9668 82.2933 46.8613 82.3634C46.7539 82.4337 46.6543 82.5157 46.5645 82.6056C46.4746 82.6954 46.3926 82.795 46.3203 82.9027C46.25 83.0081 46.1895 83.1212 46.1406 83.2403C46.0918 83.3577 46.0547 83.4806 46.0293 83.6056C46.0039 83.7306 45.9922 83.8595 45.9922 83.9864C45.9922 84.1132 46.0039 84.2423 46.0293 84.3673C46.0547 84.4921 46.0918 84.6151 46.1406 84.7343C46.1895 84.8515 46.25 84.9648 46.3203 85.0702C46.3926 85.1776 46.4746 85.2773 46.5645 85.3671C46.9277 85.7304 47.4317 85.9396 47.9453 85.9396C48.0723 85.9396 48.2012 85.9276 48.3262 85.9024C48.4512 85.8771 48.5742 85.838 48.6914 85.7892C48.8106 85.7403 48.9238 85.6817 49.0293 85.6095C49.1367 85.5394 49.2363 85.4573 49.3262 85.3673C49.416 85.2774 49.498 85.1778 49.5684 85.0704C49.6387 84.9649 49.6992 84.8517 49.748 84.7345C49.7969 84.6153 49.834 84.4923 49.8594 84.3673C49.8848 84.2421 49.8984 84.1132 49.8984 83.9864C49.8984 83.8595 49.8848 83.7304 49.8594 83.6056Z" fill="#C04941"/>
<path d="M88.1479 82.0333H55.3492C54.2705 82.0333 53.3961 82.9079 53.3961 83.9864C53.3961 85.0649 54.2705 85.9395 55.3492 85.9395H88.1479C89.2266 85.9395 90.101 85.0649 90.101 83.9864C90.101 82.9079 89.2266 82.0333 88.1479 82.0333Z" fill="#C04941"/>
</svg>
