<svg width="299" height="570" viewBox="0 0 299 570" fill="none" xmlns="http://www.w3.org/2000/svg">
<path d="M0 50C0 22.3858 22.3858 0 50 0H249C276.614 0 299 22.3858 299 50V520C299 547.614 276.614 570 249 570H50C22.3858 570 0 547.614 0 520V50Z" fill="#4A3F55"/>
<path d="M280 523V48C280 31.4315 266.569 18 250 18H222.128C219.366 18 217.128 20.2386 217.128 23V24.5C217.128 35.5457 208.173 44.5 197.128 44.5H104.25C93.2043 44.5 84.25 35.5457 84.25 24.5V23C84.25 20.2386 82.0114 18 79.25 18H49C32.4315 18 19 31.4314 19 48V523C19 539.569 32.4315 553 49 553H250C266.569 553 280 539.569 280 523Z" fill="white"/>
</svg>
